# xmcd
#
# Track frame offsets: 
#        150
#        20816
#        44264
#        71278
#        87709
#        108111
#        150253
#        168431
#        196461
#        218158
#        255516
#        270748
#        290967
#        307473
#        325876
#        344143
#
# Disc length: 4776 seconds
#
# Revision: 1
# Processed by: cddbd v1.5.2PL0 Copyright (c) Steve Scherf et al.
# Submitted via: ExactAudioCopy v1.3
#
DISCID=f912a610
DTITLE=Various Artist - Akella Presents - Blues-Rock - vol.21  CD2  N
DTITLE=ew!
DYEAR=2013
DGENRE=Rock
TTITLE0=DAVE EVANS - We Don't Dance To Your Song
TTITLE1=BLINDSTONE - Sugar Room
TTITLE2=AYNSLEY LISTER - What's It All About
TTITLE3=SIDEBURN - Trouble Maker
TTITLE4=ERIC SARDINAS and BIG MOTOR - It's Nothin' News
TTITLE5=LARRY MILLER - Cruel Old World
TTITLE6=BONAFIDE - Can't Get Through
TTITLE7=TOTH BAGI BAND - Angel Left Me Today
TTITLE8=GENOCIDE - Forever A Stain
TTITLE9=MARK REECE - Drivin' Down
TTITLE10=DIRTY DAVE OSTI - Re-run
TTITLE11=MARK SELBY - I Should Know Better
TTITLE12=LEE SMALL - Black Bess
TTITLE13=DEREK MILLER - Jaded Are My Wings
TTITLE14=SOUL RIVER DOGS - Nothingman
TTITLE15=Dr. RAGE And The UPPERCUTS - 700 Reasons
EXTD=
EXTT0=
EXTT1=
EXTT2=
EXTT3=
EXTT4=
EXTT5=
EXTT6=
EXTT7=
EXTT8=
EXTT9=
EXTT10=
EXTT11=
EXTT12=
EXTT13=
EXTT14=
EXTT15=
PLAYORDER=
